TITLE ""
FILE "1Q_t_1288-1300.mp3" MP3
  TRACK 01 AUDIO
    TITLE "1Q_t_1288-1300_01"
    INDEX 01 00:00:00
  TRACK 02 AUDIO
    TITLE "1Q_t_1288-1300_02"
    INDEX 01 00:00:10
  TRACK 03 AUDIO
    TITLE "1Q_t_1288-1300_03"
    INDEX 01 00:01:33
  TRACK 04 AUDIO
    TITLE "1Q_t_1288-1300_04"
    INDEX 01 00:01:43
  TRACK 05 AUDIO
    TITLE "1Q_t_1288-1300_05"
    INDEX 01 00:03:75
  TRACK 06 AUDIO
    TITLE "1Q_t_1288-1300_06"
    INDEX 01 00:04:06
  TRACK 07 AUDIO
    TITLE "1Q_t_1288-1300_07"
    INDEX 01 00:09:48
  TRACK 08 AUDIO
    TITLE "1Q_t_1288-1300_08"
    INDEX 01 00:10:19
  TRACK 09 AUDIO
    TITLE "1Q_t_1288-1300_09"
    INDEX 01 00:11:28
  TRACK 10 AUDIO
    TITLE "1Q_t_1288-1300_10"
    INDEX 01 00:11:34
  TRACK 11 AUDIO
    TITLE "1Q_t_1288-1300_11"
    INDEX 01 00:14:40
  TRACK 12 AUDIO
    TITLE "1Q_t_1288-1300_12"
    INDEX 01 00:14:48
  TRACK 13 AUDIO
    TITLE "1Q_t_1288-1300_13"
    INDEX 01 00:20:29
  TRACK 14 AUDIO
    TITLE "1Q_t_1288-1300_14"
    INDEX 01 00:20:72
  TRACK 15 AUDIO
    TITLE "1Q_t_1288-1300_15"
    INDEX 01 00:22:43
  TRACK 16 AUDIO
    TITLE "1Q_t_1288-1300_16"
    INDEX 01 00:22:51
  TRACK 17 AUDIO
    TITLE "1Q_t_1288-1300_17"
    INDEX 01 00:25:10
  TRACK 18 AUDIO
    TITLE "1Q_t_1288-1300_18"
    INDEX 01 00:25:16
  TRACK 19 AUDIO
    TITLE "1Q_t_1288-1300_19"
    INDEX 01 00:31:05
  TRACK 20 AUDIO
    TITLE "1Q_t_1288-1300_20"
    INDEX 01 00:31:48
  TRACK 21 AUDIO
    TITLE "1Q_t_1288-1300_21"
    INDEX 01 00:32:71
  TRACK 22 AUDIO
    TITLE "1Q_t_1288-1300_22"
    INDEX 01 00:33:02
  TRACK 23 AUDIO
    TITLE "1Q_t_1288-1300_23"
    INDEX 01 00:34:33
  TRACK 24 AUDIO
    TITLE "1Q_t_1288-1300_24"
    INDEX 01 00:34:39
  TRACK 25 AUDIO
    TITLE "1Q_t_1288-1300_25"
    INDEX 01 00:40:43
  TRACK 26 AUDIO
    TITLE "1Q_t_1288-1300_26"
    INDEX 01 00:41:13
  TRACK 27 AUDIO
    TITLE "1Q_t_1288-1300_27"
    INDEX 01 00:42:36
  TRACK 28 AUDIO
    TITLE "1Q_t_1288-1300_28"
    INDEX 01 00:42:42
  TRACK 29 AUDIO
    TITLE "1Q_t_1288-1300_29"
    INDEX 01 00:46:36
  TRACK 30 AUDIO
    TITLE "1Q_t_1288-1300_30"
    INDEX 01 00:46:44
  TRACK 31 AUDIO
    TITLE "1Q_t_1288-1300_31"
    INDEX 01 00:53:22
  TRACK 32 AUDIO
    TITLE "1Q_t_1288-1300_32"
    INDEX 01 00:53:67
  TRACK 33 AUDIO
    TITLE "1Q_t_1288-1300_33"
    INDEX 01 00:54:65
  TRACK 34 AUDIO
    TITLE "1Q_t_1288-1300_34"
    INDEX 01 00:55:03
  TRACK 35 AUDIO
    TITLE "1Q_t_1288-1300_35"
    INDEX 01 00:56:62
  TRACK 36 AUDIO
    TITLE "1Q_t_1288-1300_36"
    INDEX 01 00:56:68
  TRACK 37 AUDIO
    TITLE "1Q_t_1288-1300_37"
    INDEX 01 01:04:26
  TRACK 38 AUDIO
    TITLE "1Q_t_1288-1300_38"
    INDEX 01 01:04:73
  TRACK 39 AUDIO
    TITLE "1Q_t_1288-1300_39"
    INDEX 01 01:06:15
  TRACK 40 AUDIO
    TITLE "1Q_t_1288-1300_40"
    INDEX 01 01:06:23
  TRACK 41 AUDIO
    TITLE "1Q_t_1288-1300_41"
    INDEX 01 01:08:69
  TRACK 42 AUDIO
    TITLE "1Q_t_1288-1300_42"
    INDEX 01 01:08:75
  TRACK 43 AUDIO
    TITLE "1Q_t_1288-1300_43"
    INDEX 01 01:16:12
  TRACK 44 AUDIO
    TITLE "1Q_t_1288-1300_44"
    INDEX 01 01:16:60
  TRACK 45 AUDIO
    TITLE "1Q_t_1288-1300_45"
    INDEX 01 01:18:06
  TRACK 46 AUDIO
    TITLE "1Q_t_1288-1300_46"
    INDEX 01 01:18:10
  TRACK 47 AUDIO
    TITLE "1Q_t_1288-1300_47"
    INDEX 01 01:19:61
  TRACK 48 AUDIO
    TITLE "1Q_t_1288-1300_48"
    INDEX 01 01:19:67
  TRACK 49 AUDIO
    TITLE "1Q_t_1288-1300_49"
    INDEX 01 01:26:31
  TRACK 50 AUDIO
    TITLE "1Q_t_1288-1300_50"
    INDEX 01 01:26:75
  TRACK 51 AUDIO
    TITLE "1Q_t_1288-1300_51"
    INDEX 01 01:28:09
  TRACK 52 AUDIO
    TITLE "1Q_t_1288-1300_52"
    INDEX 01 01:28:19
  TRACK 53 AUDIO
    TITLE "1Q_t_1288-1300_53"
    INDEX 01 01:29:26
  TRACK 54 AUDIO
    TITLE "1Q_t_1288-1300_54"
    INDEX 01 01:29:34
  TRACK 55 AUDIO
    TITLE "1Q_t_1288-1300_55"
    INDEX 01 01:35:17
  TRACK 56 AUDIO
    TITLE "1Q_t_1288-1300_56"
    INDEX 01 01:35:62
  TRACK 57 AUDIO
    TITLE "1Q_t_1288-1300_57"
    INDEX 01 01:36:71
  TRACK 58 AUDIO
    TITLE "1Q_t_1288-1300_58"
    INDEX 01 01:37:06
  TRACK 59 AUDIO
    TITLE "1Q_t_1288-1300_59"
    INDEX 01 01:38:05
  TRACK 60 AUDIO
    TITLE "1Q_t_1288-1300_60"
    INDEX 01 01:38:13
  TRACK 61 AUDIO
    TITLE "1Q_t_1288-1300_61"
    INDEX 01 01:43:52
  TRACK 62 AUDIO
    TITLE "1Q_t_1288-1300_62"
    INDEX 01 01:44:18
  TRACK 63 AUDIO
    TITLE "1Q_t_1288-1300_63"
    INDEX 01 01:45:70
  TRACK 64 AUDIO
    TITLE "1Q_t_1288-1300_64"
    INDEX 01 01:46:03
  TRACK 65 AUDIO
    TITLE "1Q_t_1288-1300_65"
    INDEX 01 01:47:22
  TRACK 66 AUDIO
    TITLE "1Q_t_1288-1300_66"
    INDEX 01 01:47:28
  TRACK 67 AUDIO
    TITLE "1Q_t_1288-1300_67"
    INDEX 01 01:51:61
  TRACK 68 AUDIO
    TITLE "1Q_t_1288-1300_68"
    INDEX 01 01:52:29
  TRACK 69 AUDIO
    TITLE "1Q_t_1288-1300_69"
    INDEX 01 01:53:64
  TRACK 70 AUDIO
    TITLE "1Q_t_1288-1300_70"
    INDEX 01 01:53:70
  TRACK 71 AUDIO
    TITLE "1Q_t_1288-1300_71"
    INDEX 01 01:56:11
  TRACK 72 AUDIO
    TITLE "1Q_t_1288-1300_72"
    INDEX 01 01:56:17
  TRACK 73 AUDIO
    TITLE "1Q_t_1288-1300_73"
    INDEX 01 02:01:16
  TRACK 74 AUDIO
    TITLE "1Q_t_1288-1300_74"
    INDEX 01 02:01:61
  TRACK 75 AUDIO
    TITLE "1Q_t_1288-1300_75"
    INDEX 01 02:02:66
  TRACK 76 AUDIO
    TITLE "1Q_t_1288-1300_76"
    INDEX 01 02:03:35
  TRACK 77 AUDIO
    TITLE "1Q_t_1288-1300_77"
    INDEX 01 02:04:42
  TRACK 78 AUDIO
    TITLE "1Q_t_1288-1300_78"
    INDEX 01 02:04:52
  TRACK 79 AUDIO
    TITLE "1Q_t_1288-1300_79"
    INDEX 01 02:07:25
  TRACK 80 AUDIO
    TITLE "1Q_t_1288-1300_80"
    INDEX 01 02:07:30
  TRACK 81 AUDIO
    TITLE "1Q_t_1288-1300_81"
    INDEX 01 02:12:32
